# xmcd
#
# Track frame offsets: 
#        150
#        19500
#        37777
#        58672
#        80812
#        99885
#        125865
#        146790
#        171595
#        188020
#        203475
#        219637
#        236427
#
# Disc length: 3921 seconds
#
# Revision: 5
# Processed by: cddbd v1.5.2PL0 Copyright (c) Steve Scherf et al.
# Submitted via: ExactAudioCopyFreeDBPlugin 1.0
#
DISCID=b30f4f0d
DTITLE=MercyMe - Coming Up To Breathe
DYEAR=2006
DGENRE=Christian Rock
TTITLE0=Coming Up To Breathe
TTITLE1=So Long Self
TTITLE2=Hold Fast
TTITLE3=Something About You
TTITLE4=You're To Blame
TTITLE5=No More No Less
TTITLE6=Where I Belong
TTITLE7=Bring The Rain
TTITLE8=Last One Standing
TTITLE9=One Trick Pony
TTITLE10=3:42 am (Writer's Block)
TTITLE11=Safe And Sound
TTITLE12=I Would Die For You
EXTD=YEAR: 2004
EXTT0=
EXTT1=
EXTT2=
EXTT3=
EXTT4=
EXTT5=
EXTT6=
EXTT7=
EXTT8=
EXTT9=
EXTT10=
EXTT11=
EXTT12=
PLAYORDER=
